<svg id="Layer_1" enable-background="new 0 0 256 256" height="512" viewBox="0 0 256 256" width="512" xmlns="http://www.w3.org/2000/svg"><path d="m171.99 94.436h-1.227c-.962-19.405-16.999-34.844-36.643-34.844-4.232 0-8.293.725-12.075 2.044-4.684-16.275-19.674-28.185-37.456-28.185-21.53 0-38.983 17.453-38.983 38.983 0 1.526.097 3.029.268 4.51-21.369 2.791-37.874 21.055-37.874 43.186 0 24.063 19.506 43.569 43.569 43.569h120.421c19.126 0 34.631-15.505 34.631-34.631.001-19.127-15.504-34.632-34.631-34.632z" fill="#a4c9ff"/><path d="m171.99 165.699h-120.421c-25.127 0-45.569-20.442-45.569-45.569 0-22.154 16.08-41.115 37.709-44.88-.068-.958-.103-1.899-.103-2.817 0-22.598 18.385-40.983 40.983-40.983 17.476 0 33.126 11.278 38.758 27.67 3.5-1.015 7.114-1.529 10.772-1.529 20.009 0 36.568 15.159 38.501 34.849 19.908.338 36 16.638 36 36.626.001 20.2-16.432 36.633-36.63 36.633zm-87.4-130.248c-20.393 0-36.983 16.59-36.983 36.983 0 1.373.086 2.813.255 4.28.126 1.086-.644 2.071-1.728 2.212-20.6 2.691-36.134 20.405-36.134 41.204 0 22.921 18.647 41.569 41.569 41.569h120.421c17.993 0 32.631-14.638 32.631-32.631s-14.638-32.631-32.631-32.631h-1.227c-1.066 0-1.944-.836-1.997-1.901-.916-18.473-16.135-32.943-34.646-32.943-3.896 0-7.738.65-11.417 1.932-.519.18-1.089.141-1.577-.112s-.851-.695-1.003-1.223c-4.531-15.744-19.143-26.739-35.533-26.739z" fill="#3762cc"/><path d="m216.754 160.056h-1.107c-.868-17.509-15.337-31.438-33.061-31.438-3.818 0-7.482.654-10.895 1.844-4.226-14.684-17.751-25.43-33.795-25.43-19.425 0-35.172 15.747-35.172 35.172 0 1.377.088 2.733.242 4.069-19.281 2.518-34.173 18.997-34.173 38.965 0 21.71 17.6 39.31 39.31 39.31h108.651c17.257 0 31.246-13.989 31.246-31.246 0-17.256-13.99-31.246-31.246-31.246z" fill="#e0ebfc"/><path d="m216.754 224.549h-108.651c-22.778 0-41.31-18.532-41.31-41.31 0-20.026 14.49-37.173 34.011-40.655-.053-.809-.08-1.604-.08-2.38 0-20.497 16.675-37.172 37.172-37.172 15.789 0 29.936 10.149 35.095 24.922 3.119-.887 6.339-1.336 9.596-1.336 18.096 0 33.081 13.665 34.914 31.446 17.988.398 32.5 15.156 32.5 33.238-.001 18.333-14.915 33.247-33.247 33.247zm-78.858-117.517c-18.291 0-33.172 14.881-33.172 33.172 0 1.247.074 2.503.229 3.841.124 1.085-.646 2.07-1.729 2.211-18.488 2.415-32.431 18.314-32.431 36.982 0 20.573 16.737 37.31 37.31 37.31h108.651c16.126 0 29.246-13.12 29.246-29.247s-13.12-29.247-29.246-29.247h-1.107c-1.066 0-1.944-.836-1.997-1.901-.821-16.563-14.465-29.537-31.063-29.537-3.494 0-6.938.583-10.237 1.732-.519.181-1.089.14-1.577-.112-.488-.253-.852-.695-1.003-1.223-4.065-14.118-17.171-23.981-31.874-23.981z" fill="#3762cc"/></svg>