<svg id="Layer_1" enable-background="new 0 0 256 256" height="512" viewBox="0 0 256 256" width="512" xmlns="http://www.w3.org/2000/svg"><path d="m168.441 81.733c-18.468-18.468-23.861-45.056-16.186-68.27.553-1.673-1.166-3.204-2.743-2.418-6.876 3.427-13.286 8.111-18.882 14.057-24.797 26.347-23.928 68.096 1.891 93.442 26.126 25.647 68.095 25.499 94.038-.444 5.249-5.249 9.44-11.154 12.576-17.452.783-1.572-.751-3.284-2.419-2.732-23.215 7.68-49.806 2.287-68.275-16.183z" fill="#ffea92"/><path d="m179.308 139.587c-17.429 0-34.859-6.532-48.188-19.615-26.518-26.032-27.391-69.205-1.946-96.24 5.63-5.982 12.173-10.853 19.447-14.477 1.435-.715 3.145-.499 4.354.551 1.226 1.062 1.688 2.744 1.178 4.285-7.743 23.421-1.727 48.798 15.702 66.228 17.43 17.43 42.806 23.448 66.233 15.699 1.54-.509 3.223-.048 4.285 1.179 1.048 1.208 1.265 2.914.552 4.344-3.307 6.64-7.665 12.687-12.952 17.974-13.373 13.375-31.019 20.072-48.665 20.072zm-28.952-126.752c-6.802 3.413-12.965 8.001-18.271 13.638-23.964 25.462-23.14 66.125 1.837 90.645 25.262 24.8 66.185 24.606 91.223-.431 4.981-4.981 9.086-10.677 12.2-16.929-24.871 8.284-51.813 1.896-70.318-16.61-18.504-18.504-24.892-45.446-16.671-70.313z" fill="#3762cc"/><path d="m169.516 122.205h-1.143c-.896-18.089-15.845-32.479-34.157-32.479-3.945 0-7.73.676-11.256 1.905-4.366-15.17-18.339-26.273-34.914-26.273-20.069 0-36.338 16.269-36.338 36.338 0 1.423.091 2.824.25 4.204-19.92 2.602-35.305 19.627-35.305 40.256 0 22.43 18.183 40.613 40.612 40.613h112.25c17.829 0 32.282-14.453 32.282-32.282.001-17.829-14.452-32.282-32.281-32.282z" fill="#a4c9ff"/><path d="m169.517 188.768h-112.25c-23.496 0-42.612-19.116-42.612-42.613 0-20.676 14.977-38.378 35.142-41.946-.058-.854-.087-1.694-.087-2.514 0-21.139 17.198-38.337 38.338-38.337 16.304 0 30.91 10.495 36.215 25.762 3.234-.926 6.574-1.395 9.955-1.395 18.681 0 34.147 14.121 36.011 32.486 18.576.38 33.57 15.609 33.57 34.274-.001 18.904-15.38 34.283-34.282 34.283zm-81.47-121.41c-18.934 0-34.338 15.404-34.338 34.337 0 1.275.08 2.612.237 3.975.125 1.085-.645 2.071-1.729 2.212-19.134 2.499-33.563 18.953-33.563 38.272 0 21.291 17.321 38.613 38.612 38.613h112.25c16.697 0 30.281-13.584 30.281-30.282s-13.584-30.282-30.281-30.282h-1.144c-1.066 0-1.944-.836-1.997-1.901-.851-17.146-14.977-30.578-32.159-30.578-3.618 0-7.185.604-10.598 1.793-.519.181-1.088.141-1.577-.112-.488-.253-.851-.695-1.003-1.223-4.206-14.616-17.772-24.824-32.991-24.824z" fill="#3762cc"/><path d="m109.845 201.175c-1.481 0-2.686-1.205-2.686-2.686v-6.212l-1.294 1.627c-.513.645-1.28 1.014-2.103 1.014-.604 0-1.198-.207-1.671-.584-1.16-.922-1.353-2.616-.43-3.775l5.499-6.913v-4.45l-2.098 2.051c-.712.696-1.652 1.084-2.648 1.093l-.39.003c-2.124 0-3.844-1.701-3.868-3.791l-.026-2.316-3.258 3.258-1 8.777c-.154 1.358-1.301 2.382-2.668 2.382-.101 0-.203-.006-.306-.017-.713-.081-1.351-.435-1.798-.997s-.648-1.264-.567-1.977l.235-2.066-4.393 4.393c-.506.507-1.181.787-1.899.787s-1.392-.279-1.9-.787c-1.047-1.047-1.047-2.752 0-3.799l4.392-4.392-2.066.235c-.103.012-.205.017-.306.017-1.366 0-2.513-1.024-2.668-2.382-.167-1.472.894-2.806 2.365-2.973l8.777-1 3.259-3.259-2.315-.026c-2.108-.024-3.809-1.758-3.791-3.867l.003-.391c.008-.994.396-1.934 1.091-2.646l2.053-2.099h-4.45l-6.913 5.499c-.474.377-1.067.584-1.671.584-.824 0-1.591-.37-2.103-1.014-.447-.562-.648-1.264-.567-1.977s.435-1.351.997-1.798l1.627-1.294h-6.212c-1.481 0-2.686-1.205-2.686-2.686s1.205-2.686 2.686-2.686h6.212l-1.627-1.294c-1.159-.922-1.352-2.616-.43-3.775.513-.645 1.28-1.014 2.103-1.014.604 0 1.198.207 1.672.584l6.913 5.499h4.538l-1.946-1.989c-1.068-1.091-1.38-2.707-.795-4.117.595-1.435 1.973-2.373 3.512-2.389l2.608-.029-3.1-3.1-8.777-1c-.713-.081-1.351-.435-1.798-.997s-.648-1.264-.567-1.977c.154-1.358 1.301-2.382 2.668-2.382.101 0 .203.006.305.017l2.066.235-4.392-4.392c-.508-.507-.787-1.182-.787-1.9s.28-1.392.787-1.9c.507-.507 1.181-.787 1.899-.787s1.393.28 1.9.787l4.392 4.392-.235-2.066c-.167-1.472.894-2.806 2.365-2.973.103-.012.205-.017.306-.017 1.367 0 2.514 1.025 2.667 2.383l1 8.776 3.191 3.191.034-3.089c.012-.997.403-1.936 1.1-2.646l.274-.278c.726-.738 1.697-1.145 2.735-1.145 1.009 0 1.961.388 2.681 1.091l1.61 1.574v-4.452l-5.499-6.913c-.922-1.159-.729-2.852.43-3.775.474-.377 1.068-.584 1.672-.584.824 0 1.59.37 2.103 1.014l1.294 1.627v-6.212c0-1.481 1.205-2.686 2.686-2.686s2.687 1.205 2.687 2.686v6.211l1.294-1.627c.513-.645 1.28-1.014 2.104-1.014.604 0 1.198.207 1.672.584 1.159.922 1.352 2.615.43 3.774l-5.499 6.914v4.542l1.701-1.664c.72-.704 1.672-1.091 2.681-1.091 1.038 0 2.009.407 2.734 1.145l.274.278c.698.709 1.088 1.649 1.1 2.644l.034 2.999 3.1-3.1 1-8.777c.155-1.358 1.302-2.382 2.667-2.382.101 0 .203.006.306.017.714.081 1.352.435 1.799.997s.648 1.264.567 1.977l-.235 2.066 4.393-4.393c.507-.507 1.181-.787 1.899-.787s1.393.28 1.9.787c1.047 1.047 1.047 2.751 0 3.799l-4.393 4.392 2.066-.235c.104-.012.205-.017.306-.017 1.366 0 2.513 1.024 2.668 2.382.081.713-.12 1.415-.567 1.977s-1.085.916-1.798.997l-8.777 1-3.1 3.1 2.999.034c.996.011 1.935.402 2.645 1.1l.278.274c1.504 1.478 1.528 3.907.053 5.415l-1.663 1.701h4.542l6.913-5.499c.474-.377 1.067-.584 1.672-.584.824 0 1.591.37 2.103 1.014.922 1.159.729 2.852-.43 3.775l-1.627 1.294h6.212c1.481 0 2.686 1.205 2.686 2.686s-1.205 2.686-2.686 2.686h-6.212l1.627 1.294c.561.447.915 1.085.997 1.798s-.12 1.415-.567 1.977c-.513.645-1.28 1.014-2.103 1.014-.604 0-1.198-.207-1.671-.584l-6.913-5.499h-4.452l1.619 1.656c1.212 1.239 1.567 3.075.903 4.678-.663 1.602-2.212 2.65-3.946 2.669l-2.471.028 3.258 3.258 8.777 1c.713.081 1.351.435 1.798.997s.648 1.264.567 1.977c-.154 1.358-1.301 2.382-2.667 2.382-.101 0-.203-.006-.306-.017l-2.066-.235 4.392 4.392c.508.507.787 1.182.787 1.9s-.28 1.392-.787 1.9c-.506.507-1.181.787-1.899.787s-1.393-.28-1.9-.788l-4.392-4.392.235 2.066c.167 1.472-.894 2.806-2.365 2.973-.104.012-.205.017-.306.017-1.366 0-2.513-1.024-2.668-2.383l-1-8.777-3.168-3.168-.025 2.225c-.023 2.09-1.743 3.791-3.834 3.791l-.424-.004c-.995-.008-1.935-.396-2.647-1.092l-2.19-2.142v4.541l5.499 6.913c.922 1.16.729 2.853-.43 3.775-.474.377-1.067.584-1.672.584-.824 0-1.591-.369-2.103-1.014l-1.294-1.627v6.211c-.007 1.485-1.212 2.69-2.694 2.69zm6.446-25.909.048-4.253-3.807-3.807v4.385c.013.014 3.759 3.675 3.759 3.675zm-12.799 0 3.667-3.586v-4.474l-3.716 3.716zm16.557-8.141c.028-.001 5.27-.06 5.27-.06l-3.576-3.658h-5.411zm-20.405-.002 3.716-3.716h-4.474l-3.586 3.667zm22.009-9.089c.013-.014 3.081-3.152 3.081-3.152l-5.193-.058-3.211 3.211h5.323zm-18.293 0-3.21-3.21-4.269.047s3.08 3.149 3.093 3.162h4.386zm3.799-3.799v-5.411l-3.06-2.992s-.059 5.255-.06 5.283zm5.373 0 3.21-3.21-.058-5.193s-3.138 3.069-3.152 3.081z" fill="#e0ebfc"/><path d="m109.845 203.175c-2.584 0-4.686-2.103-4.686-4.687v-1.781c-1.424.442-3.11.149-4.313-.808-.979-.779-1.597-1.893-1.738-3.138-.143-1.245.209-2.47.988-3.448l4.216-5.301c-.598.209-1.231.321-1.881.327l-.39.003c-2.347 0-4.383-1.378-5.327-3.359l-.855 7.514c-.289 2.543-2.584 4.421-5.188 4.125-1.243-.142-2.357-.759-3.136-1.739-.187-.234-.349-.482-.484-.741l-1.261 1.26c-.882.885-2.06 1.373-3.313 1.373-1.251 0-2.427-.487-3.313-1.372s-1.373-2.062-1.373-3.315c0-1.252.487-2.43 1.372-3.314l1.26-1.26c-1.336-.701-2.299-2.03-2.479-3.622-.142-1.241.21-2.466.989-3.446.78-.98 1.894-1.598 3.136-1.74l7.504-.855c-1.993-.944-3.368-2.984-3.348-5.327l.003-.389c.006-.65.117-1.285.327-1.883l-5.302 4.217c-.825.657-1.861 1.019-2.916 1.019-1.437 0-2.773-.645-3.668-1.768-.78-.98-1.132-2.205-.99-3.448.034-.297.096-.587.183-.867h-1.783c-2.584 0-4.687-2.103-4.687-4.687s2.103-4.687 4.687-4.687h1.785c-.445-1.433-.198-3.054.804-4.314.895-1.124 2.231-1.769 3.669-1.769 1.055 0 2.09.362 2.916 1.019l5.521 4.391c-.483-1.335-.47-2.831.098-4.199.547-1.318 1.53-2.36 2.742-2.981l-6.88-.784c-1.244-.142-2.358-.759-3.137-1.739-.779-.978-1.131-2.203-.989-3.447.181-1.592 1.144-2.921 2.48-3.622l-1.26-1.26c-.885-.884-1.373-2.061-1.373-3.313s.488-2.43 1.374-3.315c.884-.884 2.061-1.372 3.313-1.372 1.253 0 2.431.488 3.315 1.374l1.259 1.26c.137-.259.299-.507.485-.742.779-.98 1.894-1.598 3.136-1.739 2.588-.292 4.899 1.583 5.187 4.129l.766 6.718c.279-.611.665-1.173 1.147-1.664l.272-.278c1.105-1.124 2.584-1.743 4.162-1.743.614 0 1.216.095 1.785.277l-4.561-5.732c-1.608-2.022-1.271-4.977.751-6.585 1.203-.956 2.891-1.25 4.314-.808v-1.781c0-2.584 2.102-4.687 4.686-4.687 2.585 0 4.688 2.103 4.688 4.687v1.781c1.424-.443 3.109-.149 4.313.808 2.022 1.609 2.359 4.563.752 6.585l-4.593 5.774c.606-.209 1.25-.318 1.91-.318 1.578 0 3.056.619 4.161 1.743l.271.274c.442.45.803.959 1.075 1.509l.747-6.563c.291-2.544 2.555-4.427 5.186-4.126 1.244.142 2.358.759 3.139 1.738.187.234.349.483.484.742l1.261-1.26c.885-.885 2.062-1.373 3.313-1.373s2.43.488 3.314 1.373c1.827 1.827 1.827 4.799 0 6.627l-1.26 1.26c1.334.701 2.297 2.029 2.479 3.621.142 1.246-.21 2.47-.99 3.45-.777.979-1.892 1.596-3.137 1.738l-6.564.748c.55.272 1.058.631 1.507 1.072l.281.277c1.653 1.625 2.13 4.009 1.418 6.072l5.777-4.596c.827-.657 1.862-1.019 2.917-1.019 1.436 0 2.772.645 3.668 1.768 1.002 1.261 1.249 2.883.804 4.315h1.786c2.584 0 4.686 2.103 4.686 4.687s-2.102 4.687-4.686 4.687h-1.782c.086.279.147.567.182.864.142 1.247-.21 2.472-.99 3.451-.893 1.123-2.23 1.768-3.668 1.768-1.055 0-2.091-.362-2.916-1.019l-5.623-4.47c.502 1.438.479 3.04-.13 4.507-.637 1.539-1.833 2.728-3.297 3.371l7.294.831c1.244.142 2.358.759 3.137 1.739.78.981 1.131 2.207.988 3.45-.181 1.591-1.144 2.919-2.479 3.62l1.26 1.26c.886.886 1.373 2.063 1.373 3.314 0 1.25-.487 2.427-1.372 3.313s-2.063 1.374-3.314 1.374c-1.254 0-2.431-.488-3.316-1.375l-1.26-1.261c-.699 1.328-2.021 2.3-3.619 2.482-.175.021-.354.03-.532.03-2.385 0-4.386-1.787-4.655-4.157l-.838-7.354c-.968 1.896-2.942 3.201-5.201 3.201l-.44-.003c-.696-.006-1.375-.134-2.01-.374l4.254 5.349c1.608 2.023 1.271 4.977-.751 6.585-1.203.957-2.891 1.25-4.313.808v1.781c-.003 2.581-2.105 4.684-4.69 4.684zm-2.686-12.898c.221 0 .443.036.659.112.803.28 1.341 1.038 1.341 1.888v6.211c0 .378.308.687.686.687.379 0 .688-.308.688-.687v-6.211c0-.851.538-1.608 1.341-1.888.8-.28 1.695-.023 2.225.644l1.294 1.627c.228.284.676.338.964.109.297-.236.346-.668.11-.965l-5.499-6.913c-.281-.354-.435-.793-.435-1.245v-4.541c0-.805.482-1.531 1.225-1.843.74-.311 1.599-.149 2.174.414l2.19 2.142c.34.332.79.518 1.266.522l.423.003c.983 0 1.807-.814 1.817-1.814l.025-2.225c.01-.805.5-1.525 1.245-1.829s1.602-.131 2.169.438l3.167 3.167c.32.32.521.738.573 1.188l1 8.777c.039.348.332.609.681.609.455-.047.727-.389.684-.765l-.235-2.065c-.096-.845.353-1.659 1.118-2.028.767-.371 1.682-.214 2.283.387l4.392 4.392c.265.264.709.264.971.001.132-.132.202-.3.202-.486s-.07-.354-.202-.486l-4.392-4.392c-.602-.601-.757-1.517-.388-2.283.37-.766 1.182-1.212 2.028-1.119l2.066.235h.011c.422 0 .709-.26.748-.604.021-.187-.028-.36-.145-.506-.115-.146-.274-.233-.458-.254l-8.778-1c-.449-.051-.868-.253-1.188-.573l-3.258-3.258c-.569-.569-.742-1.424-.438-2.169s1.024-1.236 1.829-1.245l2.471-.027c.932-.01 1.765-.574 2.121-1.435s.166-1.848-.485-2.514l-1.619-1.656c-.563-.576-.725-1.432-.413-2.174.313-.742 1.039-1.224 1.844-1.224h4.452c.452 0 .892.153 1.245.435l6.913 5.499c.287.229.737.175.964-.109.118-.148.167-.318.146-.506-.021-.183-.109-.342-.254-.458l-1.628-1.295c-.665-.529-.924-1.421-.643-2.225.28-.803 1.037-1.34 1.888-1.34h6.212c.378 0 .686-.308.686-.687s-.308-.687-.686-.687h-6.212c-.851 0-1.607-.538-1.888-1.34-.281-.803-.022-1.695.643-2.225l1.627-1.294c.296-.236.346-.669.109-.965-.226-.283-.676-.336-.965-.109l-6.912 5.499c-.354.281-.793.435-1.245.435h-4.543c-.805 0-1.531-.482-1.844-1.225-.312-.742-.148-1.599.414-2.174l1.664-1.701c.705-.722.694-1.883-.024-2.59l-.281-.277c-.338-.332-.787-.519-1.264-.524l-2.999-.034c-.805-.009-1.525-.5-1.829-1.245-.305-.745-.132-1.6.438-2.169l3.101-3.101c.319-.32.738-.522 1.188-.573l8.777-1c.185-.021.344-.108.459-.254.116-.146.167-.321.146-.506-.039-.346-.332-.608-.681-.608l-2.145.24c-.85.089-1.658-.353-2.028-1.118-.369-.766-.214-1.682.388-2.283l4.393-4.393c.268-.268.268-.703 0-.971-.264-.263-.708-.263-.972 0l-4.393 4.393c-.601.602-1.516.757-2.283.387-.766-.369-1.214-1.183-1.118-2.028l.235-2.066c.021-.186-.028-.359-.145-.505-.115-.145-.274-.233-.459-.254-.422-.01-.722.257-.761.605l-.999 8.776c-.052.45-.253.869-.573 1.188l-3.101 3.1c-.569.57-1.425.742-2.169.438-.745-.304-1.236-1.025-1.245-1.83l-.033-2.999c-.006-.476-.192-.925-.526-1.265l-.271-.274c-.696-.708-1.892-.716-2.594-.029l-1.701 1.663c-.575.563-1.435.726-2.174.414-.742-.312-1.225-1.039-1.225-1.843v-4.542c0-.452.153-.891.435-1.245l5.499-6.914c.235-.296.186-.729-.11-.965-.287-.228-.737-.174-.966.112l-1.292 1.625c-.529.667-1.425.925-2.225.644-.803-.28-1.341-1.038-1.341-1.888v-6.211c0-.378-.309-.687-.688-.687-.378 0-.686.308-.686.687v6.211c0 .851-.538 1.608-1.341 1.888-.8.281-1.695.022-2.225-.643l-1.294-1.627c-.227-.285-.678-.34-.965-.11-.297.236-.346.668-.11.964l5.5 6.914c.281.354.435.793.435 1.245v4.452c0 .805-.482 1.531-1.224 1.843-.742.313-1.598.149-2.174-.413l-1.61-1.574c-.704-.688-1.901-.675-2.592.025l-.272.278c-.334.34-.521.79-.527 1.269l-.034 3.086c-.009.805-.5 1.526-1.245 1.83-.742.304-1.599.132-2.169-.438l-3.191-3.191c-.32-.32-.521-.738-.573-1.188l-1-8.776c-.039-.349-.331-.61-.68-.61-.324.033-.472.177-.538.26s-.174.26-.146.504l.235 2.066c.096.845-.353 1.659-1.118 2.028-.768.369-1.683.213-2.283-.387l-4.393-4.392c-.266-.266-.705-.265-.971 0-.132.132-.201.3-.201.486s.069.354.2.484l4.393 4.394c.602.602.757 1.517.388 2.283-.37.766-1.181 1.212-2.028 1.118l-2.065-.235c-.004 0-.008 0-.011 0-.422 0-.71.26-.749.603-.021.185.029.36.145.505.116.147.275.234.459.255l8.778 1c.449.051.868.253 1.188.573l3.101 3.101c.569.569.742 1.424.438 2.169s-1.024 1.236-1.829 1.245l-2.607.029c-.737.008-1.399.461-1.687 1.155-.277.669-.13 1.435.377 1.952l1.946 1.989c.563.576.726 1.433.414 2.174-.313.742-1.039 1.225-1.844 1.225h-4.539c-.452 0-.892-.153-1.245-.435l-6.913-5.499c-.286-.228-.737-.176-.965.11-.235.296-.186.729.11.965l1.627 1.293c.665.529.924 1.422.644 2.225-.281.803-1.038 1.341-1.889 1.341h-6.212c-.379 0-.687.308-.687.687s.308.687.687.687h6.212c.851 0 1.607.538 1.888 1.34.281.803.022 1.695-.643 2.225l-1.627 1.294c-.147.118-.233.273-.255.461-.021.185.027.355.145.503.229.285.678.339.965.11l6.913-5.5c.354-.281.793-.435 1.245-.435h4.45c.805 0 1.531.482 1.844 1.224.312.742.148 1.599-.414 2.174l-2.053 2.099c-.331.339-.517.789-.521 1.265l-.003.389c-.009 1.011.805 1.841 1.813 1.852l2.315.026c.805.009 1.525.5 1.829 1.245.305.745.132 1.6-.438 2.169l-3.259 3.259c-.319.32-.738.522-1.188.573l-8.777 1c-.244.027-.392.172-.458.255s-.174.26-.146.504c.039.348.332.609.681.609l2.145-.24c.844-.092 1.658.352 2.028 1.119.369.766.214 1.682-.388 2.283l-4.393 4.392c-.174.174-.2.379-.2.485 0 .107.026.312.2.485.266.266.708.264.969.002l4.395-4.395c.602-.601 1.516-.757 2.283-.387.766.369 1.214 1.183 1.118 2.028l-.235 2.066c-.021.184.029.359.145.504.116.147.275.234.459.255h.012c.422 0 .71-.26.749-.603l1-8.778c.052-.449.253-.868.573-1.188l3.258-3.258c.569-.57 1.428-.74 2.169-.438.745.304 1.235 1.024 1.245 1.829l.026 2.316c.012 1 .85 1.814 1.868 1.814l.372-.003c.478-.004.928-.19 1.268-.522l2.098-2.052c.575-.563 1.435-.726 2.174-.413.742.312 1.225 1.039 1.225 1.843v4.45c0 .452-.153.891-.435 1.245l-5.499 6.914c-.153.193-.156.399-.145.505.013.106.062.307.254.46.286.227.737.176.966-.112l1.293-1.625c.388-.485.97-.753 1.567-.753zm9.132-13.011c-.513 0-1.017-.197-1.398-.57 0 0-3.762-3.678-3.774-3.69-.375-.375-.586-.884-.586-1.414v-4.385c0-.809.487-1.538 1.234-1.848.749-.309 1.607-.139 2.18.433l3.807 3.806c.381.381.592.899.586 1.437l-.048 4.253c-.009.801-.495 1.519-1.234 1.825-.248.103-.509.153-.767.153zm-12.799 0c-.258 0-.518-.05-.766-.152-.739-.306-1.226-1.024-1.234-1.825l-.049-4.344c-.006-.538.205-1.056.586-1.437l3.716-3.716c.572-.573 1.431-.744 2.18-.434.747.31 1.234 1.039 1.234 1.848v4.474c0 .538-.217 1.054-.602 1.43l-3.667 3.585c-.38.374-.885.571-1.398.571zm16.561-8.141c-.53 0-1.043-.21-1.418-.586l-3.718-3.718c-.572-.572-.743-1.432-.434-2.179.31-.748 1.039-1.235 1.848-1.235h5.411c.538 0 1.054.217 1.43.602l3.576 3.658c.561.572.725 1.423.418 2.163s-1.024 1.226-1.825 1.235c0 0-5.095.057-5.258.06-.01 0-.02 0-.03 0zm-20.409-.002c-.008 0-.015 0-.022 0l-4.344-.049c-.801-.009-1.519-.495-1.825-1.235-.307-.74-.143-1.591.418-2.164l3.586-3.667c.376-.385.892-.602 1.43-.602h4.474c.809 0 1.538.487 1.848 1.235.31.747.139 1.607-.434 2.179l-3.716 3.716c-.376.377-.885.587-1.415.587zm22.008-9.089h-5.321c-.809 0-1.538-.487-1.848-1.234-.31-.748-.139-1.608.434-2.18l3.21-3.21c.381-.381.908-.599 1.437-.586l5.193.058c.801.009 1.519.495 1.825 1.235.307.74.143 1.591-.418 2.164 0 0-2.979 3.046-3.075 3.145-.376.387-.897.608-1.437.608zm-18.293 0h-4.386c-.556 0-1.087-.231-1.466-.639-.067-.069-3.057-3.125-3.057-3.125-.56-.572-.725-1.424-.418-2.164s1.024-1.226 1.825-1.235l4.269-.047c.546-.014 1.056.205 1.437.585l3.21 3.209c.572.572.743 1.433.434 2.18-.31.749-1.039 1.236-1.848 1.236zm3.8-3.799c-.52 0-1.031-.203-1.414-.585l-3.121-3.121c-.393-.393-.604-.931-.585-1.486.002-.126.06-5.234.06-5.234.009-.801.495-1.519 1.234-1.825.742-.306 1.59-.142 2.164.417l3.061 2.992c.385.376.602.892.602 1.43v5.411c0 .809-.487 1.538-1.234 1.848-.249.104-.509.153-.767.153zm5.373 0c-.258 0-.518-.05-.766-.152-.747-.31-1.234-1.039-1.234-1.848v-5.322c0-.518.2-1.015.56-1.387.029-.03.033-.035 3.193-3.125.573-.56 1.423-.724 2.164-.417.739.306 1.226 1.024 1.234 1.825l.059 5.193c.006.538-.205 1.056-.586 1.437l-3.21 3.21c-.383.383-.893.586-1.414.586z" fill="#3762cc"/><circle cx="42.437" cy="233.027" fill="#a4c9ff" r="12.114"/><circle cx="177.947" cy="233.027" fill="#e0ebfc" r="12.114"/><circle cx="143.25" cy="209.009" fill="#a4c9ff" r="12.114"/><circle cx="77.434" cy="209.009" fill="#e0ebfc" r="12.114"/><circle cx="110.042" cy="236.413" fill="#a4c9ff" r="8.753"/></svg>