<svg id="Layer_2" enable-background="new 0 0 64 64" height="512" viewBox="0 0 64 64" width="512" xmlns="http://www.w3.org/2000/svg"><path d="m41.31 30.345 6.69-3.345-6.69-3.345c-.448-.224-.564-.81-.236-1.188l2.876-3.316-4.378-.311c-.499-.035-.831-.532-.673-1.007l2.365-7.096-7.096 2.365c-.475.158-.972-.174-1.007-.673l-.311-4.378-3.316 2.876c-.378.328-.964.211-1.188-.236l-3.346-6.691-3.345 6.69c-.224.448-.81.564-1.188.236l-3.316-2.876-.311 4.378c-.035.499-.532.831-1.007.673l-7.096-2.365 2.365 7.096c.158.475-.174.972-.673 1.007l-4.378.311 2.876 3.316c.328.378.211.964-.236 1.188l-6.691 3.346 6.69 3.345c.448.224.564.81.236 1.188l-2.876 3.316 4.378.311c.499.035.831.532.673 1.007l-2.365 7.096 7.096-2.365c.475-.158.972.174 1.007.673l.311 4.378 3.316-2.876c.378-.328.964-.211 1.188.236l3.346 6.691 3.345-6.69c.224-.448.81-.564 1.188-.236l3.316 2.876.311-4.378c.035-.499.532-.831 1.007-.673l7.096 2.365-2.365-7.096c-.158-.475.174-.972.673-1.007l4.378-.311-2.876-3.316c-.328-.379-.211-.965.237-1.189z" fill="#ffe352"/><circle cx="25" cy="27" fill="#ffb236" r="13.8"/><path d="m56 60c3.314 0 6-2.686 6-6 0-2.988-2.187-5.459-5.046-5.917-.467-5.645-5.188-10.083-10.954-10.083-3.891 0-7.303 2.026-9.258 5.075-.244-.037-.488-.075-.742-.075-2.061 0-3.829 1.249-4.594 3.03-3.587.302-6.406 3.305-6.406 6.97 0 3.866 3.134 7 7 7z" fill="#edeff1"/></svg>